<mxfile host="app.diagrams.net" modified="2024-07-04T07:09:37.044Z" agent="Mozilla/5.0 (Macintosh; Intel Mac OS X 10_15_7) AppleWebKit/537.36 (KHTML, like Gecko) Chrome/126.0.0.0 Safari/537.36" version="24.6.4" etag="VvXQPuVNM3PQv9XpkQO9" type="github">
  <diagram name="第 1 页" id="3fdD7wzc84tyW7oaMPEg">
    <mxGraphModel>
      <root>
        <mxCell id="0" />
        <mxCell id="1" parent="0" />
      </root>
    </mxGraphModel>
  </diagram>
</mxfile>
